<?xml version="1.0" encoding="UTF-8"?>
<svg xmlns="http://www.w3.org/2000/svg" viewBox="0 0 600 450" role="img" aria-label="Doppit gameplay: a constraint-region grid with dominoes in a tray">
  <defs>
    <pattern id="paper-d" width="6" height="6" patternUnits="userSpaceOnUse">
      <circle cx="3" cy="3" r="0.4" fill="#a89172" opacity="0.4"/>
    </pattern>
  </defs>
  <rect width="600" height="450" fill="#e8d9bf"/>
  <rect width="600" height="450" fill="url(#paper-d)"/>
  <g opacity="0.9">
    <rect x="80" y="100" width="180" height="60" fill="#c9d4e3" stroke="#2a3a6a" stroke-width="1.5" stroke-dasharray="3,3"/>
    <rect x="80" y="100" width="60" height="60" fill="#b6c2d8"/>
    <text x="92" y="124" font-family="Fraunces, Georgia, serif" font-style="italic" font-size="20" font-weight="600" fill="#2a3a6a">&lt;3</text>
    <rect x="80" y="170" width="240" height="60" fill="#cbe3c9" stroke="#297722" stroke-width="1.5" stroke-dasharray="3,3"/>
    <rect x="80" y="170" width="60" height="60" fill="#b6d8b4"/>
    <text x="92" y="196" font-family="Fraunces, Georgia, serif" font-style="italic" font-size="20" font-weight="600" fill="#297722">12</text>
    <rect x="80" y="240" width="180" height="60" fill="#e3c9c9" stroke="#b53737" stroke-width="1.5" stroke-dasharray="3,3"/>
    <rect x="80" y="240" width="60" height="60" fill="#d8b4b4"/>
    <text x="92" y="264" font-family="Fraunces, Georgia, serif" font-style="italic" font-size="20" font-weight="600" fill="#b53737">5</text>
    <rect x="80" y="310" width="120" height="60" fill="#e9d8c4" stroke="#a8862a" stroke-width="1.5" stroke-dasharray="3,3"/>
    <rect x="80" y="310" width="60" height="60" fill="#dac6a6"/>
    <text x="98" y="334" font-family="Fraunces, Georgia, serif" font-style="italic" font-size="20" font-weight="600" fill="#a8862a">=</text>
  </g>
  <g transform="translate(330, 110)">
    <g transform="rotate(-6 60 35)">
      <rect x="0" y="0" width="120" height="60" rx="6" fill="#fcfaf2" stroke="#181620" stroke-width="1.5"/>
      <line x1="60" y1="6" x2="60" y2="54" stroke="#181620" stroke-width="1"/>
      <circle cx="20" cy="20" r="4" fill="#b53737"/><circle cx="40" cy="20" r="4" fill="#b53737"/>
      <circle cx="20" cy="40" r="4" fill="#b53737"/><circle cx="40" cy="40" r="4" fill="#b53737"/>
      <circle cx="80" cy="30" r="4" fill="#b53737"/>
    </g>
    <g transform="translate(20, 90) rotate(4 60 35)">
      <rect x="0" y="0" width="120" height="60" rx="6" fill="#fcfaf2" stroke="#181620" stroke-width="1.5"/>
      <line x1="60" y1="6" x2="60" y2="54" stroke="#181620" stroke-width="1"/>
      <circle cx="30" cy="30" r="4" fill="#b53737"/>
      <circle cx="73" cy="18" r="4" fill="#b53737"/><circle cx="73" cy="42" r="4" fill="#b53737"/>
      <circle cx="92" cy="18" r="4" fill="#b53737"/><circle cx="92" cy="42" r="4" fill="#b53737"/>
    </g>
    <g transform="translate(-10, 190) rotate(-3 60 35)">
      <rect x="0" y="0" width="120" height="60" rx="6" fill="#fcfaf2" stroke="#181620" stroke-width="1.5"/>
      <line x1="60" y1="6" x2="60" y2="54" stroke="#181620" stroke-width="1"/>
      <circle cx="30" cy="30" r="4" fill="#b53737"/>
    </g>
  </g>
  <text x="300" y="40" text-anchor="middle" font-family="Fraunces, Georgia, serif" font-size="12" letter-spacing="3" fill="#b53737" font-weight="600">— A PUZZLE OF DOMINOES —</text>
</svg>
