<?xml version="1.0" encoding="UTF-8"?>
<svg xmlns="http://www.w3.org/2000/svg" viewBox="0 0 600 450" role="img" aria-label="Pet Cafe: a steaming coffee mug on a saucer with a cartoon cat curled up beside it, in a warm coffeehouse scene">
  <defs>
    <radialGradient id="warm-pc" cx="50%" cy="40%" r="60%">
      <stop offset="0%" stop-color="#3a2a1a"/>
      <stop offset="100%" stop-color="#1c1308"/>
    </radialGradient>
  </defs>
  <rect width="600" height="450" fill="url(#warm-pc)"/>
  <g fill="#c8703c" opacity="0.08">
    <g transform="translate(60 60)">
      <circle cx="0" cy="0" r="6"/>
      <circle cx="-10" cy="-12" r="3"/><circle cx="-2" cy="-16" r="3"/>
      <circle cx="8" cy="-16" r="3"/><circle cx="14" cy="-10" r="3"/>
    </g>
    <g transform="translate(220 90)">
      <circle cx="0" cy="0" r="6"/>
      <circle cx="-10" cy="-12" r="3"/><circle cx="-2" cy="-16" r="3"/>
      <circle cx="8" cy="-16" r="3"/><circle cx="14" cy="-10" r="3"/>
    </g>
    <g transform="translate(450 50)">
      <circle cx="0" cy="0" r="6"/>
      <circle cx="-10" cy="-12" r="3"/><circle cx="-2" cy="-16" r="3"/>
      <circle cx="8" cy="-16" r="3"/><circle cx="14" cy="-10" r="3"/>
    </g>
    <g transform="translate(120 350)">
      <circle cx="0" cy="0" r="6"/>
      <circle cx="-10" cy="-12" r="3"/><circle cx="-2" cy="-16" r="3"/>
      <circle cx="8" cy="-16" r="3"/><circle cx="14" cy="-10" r="3"/>
    </g>
    <g transform="translate(380 380)">
      <circle cx="0" cy="0" r="6"/>
      <circle cx="-10" cy="-12" r="3"/><circle cx="-2" cy="-16" r="3"/>
      <circle cx="8" cy="-16" r="3"/><circle cx="14" cy="-10" r="3"/>
    </g>
    <g transform="translate(520 270)">
      <circle cx="0" cy="0" r="6"/>
      <circle cx="-10" cy="-12" r="3"/><circle cx="-2" cy="-16" r="3"/>
      <circle cx="8" cy="-16" r="3"/><circle cx="14" cy="-10" r="3"/>
    </g>
  </g>
  <g transform="translate(220 130)">
    <g stroke="#e8d8c4" stroke-width="2" fill="none" stroke-linecap="round" opacity="0.7">
      <path d="M 60 -20 Q 50 -40 60 -55 Q 70 -65 60 -80"/>
      <path d="M 90 -20 Q 95 -38 90 -55 Q 80 -68 90 -82"/>
      <path d="M 120 -22 Q 130 -38 120 -55 Q 110 -68 120 -82"/>
    </g>
    <ellipse cx="90" cy="210" rx="100" ry="12" fill="#a8763c" opacity="0.6"/>
    <path d="M 20 30 L 25 200 Q 30 215 90 215 Q 150 215 155 200 L 160 30 Z" fill="#f5e8c8" stroke="#3a2010" stroke-width="2"/>
    <path d="M 160 70 Q 200 75 200 130 Q 200 175 160 175" fill="none" stroke="#f5e8c8" stroke-width="14" stroke-linecap="round"/>
    <path d="M 160 70 Q 200 75 200 130 Q 200 175 160 175" fill="none" stroke="#3a2010" stroke-width="2"/>
    <ellipse cx="90" cy="35" rx="70" ry="9" fill="#3a1f10"/>
    <path d="M 75 33 Q 70 25 80 27 Q 90 25 90 33 Q 100 25 105 27 Q 110 25 105 33 Q 100 42 90 47 Q 80 42 75 33 Z" fill="#e8d8c4" opacity="0.7"/>
  </g>
  <g transform="translate(440 280)" opacity="0.85">
    <ellipse cx="50" cy="80" rx="55" ry="32" fill="#c8703c"/>
    <circle cx="80" cy="50" r="30" fill="#c8703c"/>
    <path d="M 60 30 L 55 10 L 72 25 Z" fill="#c8703c"/>
    <path d="M 100 30 L 105 10 L 88 25 Z" fill="#c8703c"/>
    <path d="M 60 30 L 60 18 L 70 25 Z" fill="#3a1f10"/>
    <path d="M 100 30 L 100 18 L 90 25 Z" fill="#3a1f10"/>
    <ellipse cx="72" cy="48" rx="2.5" ry="4" fill="#3a1f10"/>
    <ellipse cx="92" cy="48" rx="2.5" ry="4" fill="#3a1f10"/>
    <path d="M 79 55 L 85 55 L 82 58 Z" fill="#3a1f10"/>
    <path d="M 0 80 Q -10 60 -5 30 Q 5 20 12 35" fill="none" stroke="#c8703c" stroke-width="14" stroke-linecap="round"/>
  </g>
</svg>
