<?xml version="1.0" encoding="UTF-8"?>
<svg xmlns="http://www.w3.org/2000/svg" viewBox="0 0 600 450" role="img" aria-label="State of Fortune: a starfield with a constellation of star systems connected by faint lines, a ship firing its thruster, and an 'in development' tag">
  <defs>
    <radialGradient id="neb" cx="30%" cy="20%" r="80%">
      <stop offset="0%" stop-color="#3a2865"/>
      <stop offset="50%" stop-color="#1a1230"/>
      <stop offset="100%" stop-color="#070512"/>
    </radialGradient>
    <radialGradient id="star-glow" cx="50%" cy="50%" r="50%">
      <stop offset="0%" stop-color="#f5e8c8"/>
      <stop offset="100%" stop-color="#f5e8c8" stop-opacity="0"/>
    </radialGradient>
  </defs>
  <rect width="600" height="450" fill="url(#neb)"/>
  <g fill="#f5e8c8">
    <circle cx="40" cy="30" r="0.8"/><circle cx="120" cy="60" r="1.2" opacity="0.8"/>
    <circle cx="180" cy="40" r="0.6"/><circle cx="240" cy="80" r="0.9" opacity="0.7"/>
    <circle cx="300" cy="50" r="0.7"/><circle cx="380" cy="70" r="1.4" opacity="0.9"/>
    <circle cx="450" cy="40" r="0.8"/><circle cx="520" cy="80" r="0.6"/>
    <circle cx="60" cy="200" r="0.7"/><circle cx="100" cy="280" r="0.9"/>
    <circle cx="40" cy="370" r="1.1" opacity="0.7"/><circle cx="160" cy="380" r="0.6"/>
    <circle cx="540" cy="200" r="0.8"/><circle cx="560" cy="280" r="1.2" opacity="0.8"/>
    <circle cx="500" cy="360" r="0.7"/><circle cx="450" cy="400" r="0.9"/>
    <circle cx="320" cy="400" r="0.6"/>
  </g>
  <circle cx="120" cy="100" r="20" fill="url(#star-glow)" opacity="0.6"/>
  <circle cx="120" cy="100" r="2.4" fill="#f5e8c8"/>
  <g stroke="#c8a880" stroke-width="0.8" fill="#c8a880" opacity="0.55" stroke-linecap="round">
    <line x1="180" y1="160" x2="260" y2="200"/>
    <line x1="260" y1="200" x2="340" y2="180"/>
    <line x1="260" y1="200" x2="300" y2="280"/>
    <line x1="340" y1="180" x2="420" y2="220"/>
    <line x1="300" y1="280" x2="380" y2="310"/>
    <line x1="420" y1="220" x2="380" y2="310"/>
    <line x1="180" y1="160" x2="220" y2="270"/>
    <line x1="220" y1="270" x2="300" y2="280"/>
  </g>
  <g fill="#f5e8c8">
    <circle cx="180" cy="160" r="3.5"/><circle cx="260" cy="200" r="4"/><circle cx="340" cy="180" r="3"/>
    <circle cx="220" cy="270" r="3"/><circle cx="300" cy="280" r="4.5"/><circle cx="380" cy="310" r="3.5"/>
    <circle cx="420" cy="220" r="3"/>
  </g>
  <g transform="translate(300 280) rotate(-32)">
    <path d="M 0 24 L -22 38 L 0 60 L 22 38 Z" fill="#c8703c" opacity="0.7"/>
    <path d="M 0 24 L -8 30 L 0 42 L 8 30 Z" fill="#f5e8c8" opacity="0.9"/>
    <path d="M 0 -32 L 18 -8 L 22 12 L 14 24 L -14 24 L -22 12 L -18 -8 Z" fill="#e8d8b8" stroke="#3a2a1a" stroke-width="1"/>
    <ellipse cx="0" cy="-6" rx="6" ry="10" fill="#3a2a65"/>
    <path d="M -22 12 L -32 18 L -28 4 Z" fill="#e8d8b8" stroke="#3a2a1a" stroke-width="1"/>
    <path d="M 22 12 L 32 18 L 28 4 Z" fill="#e8d8b8" stroke="#3a2a1a" stroke-width="1"/>
  </g>
  <text x="50" y="420" font-family="Fraunces, Georgia, serif" font-style="italic" font-size="13" fill="#d6a85a" opacity="0.75" letter-spacing="2">— IN DEVELOPMENT —</text>
</svg>
